<svg xmlns="http://www.w3.org/2000/svg" width="77" height="67" viewBox="0 0 77 67">
    <g fill="none" fill-rule="evenodd">
        <g>
            <g transform="translate(-465 -821) translate(465 821)">
                <circle cx="38" cy="37" r="30" fill="#0D6EFD"/>
                <g fill="#37383C" fill-rule="nonzero">
                    <path d="M74.56 32.64c-1.92-9.44-6-22.08-18.4-22.4-2.64-.08-5.6.24-8.8.88-2.32.48-4.64.72-7.04.8V2.16c0-1.04-.88-1.92-1.92-1.92s-1.92.88-1.92 1.92v9.76c-2.4-.08-4.72-.4-7.04-.8-3.12-.64-6.16-.88-8.8-.88-12.4.24-16.48 12.88-18.4 22.4C.08 43.12-.64 51.12 2.64 56c1.6 2.32 4 3.76 7.12 4.32 8.16 1.44 15.92-4.96 21.36-17.44h14.56c4.88 11.36 11.68 17.6 19.04 17.6.72 0 1.52-.08 2.24-.16 3.2-.56 5.6-2 7.12-4.32 3.36-4.88 2.64-12.88.48-23.36zm-3.6 21.28c-.96 1.44-2.48 2.32-4.64 2.72-8.96 1.52-14.96-10.08-17.12-15.12-.64-1.44-2-2.32-3.52-2.32H31.12c-1.52 0-2.88.88-3.52 2.32-2.16 5.04-8.16 16.72-17.12 15.12-2.16-.4-3.68-1.28-4.64-2.72-2.72-4-1.52-12.24.16-20.48 2.72-13.2 7.28-19.12 14.72-19.28h.56c2.24 0 4.72.24 7.36.8 6.32 1.28 13.04 1.28 19.36 0 2.88-.56 5.6-.8 7.92-.8 7.52.16 12.08 6.16 14.72 19.28 1.84 8.24 3.04 16.48.32 20.48z"/>
                    <path d="M28.24 26.96H24.4v-3.84c0-.48-.4-.96-.96-.96h-2.88c-.48 0-.96.4-.96.96v3.84h-3.84c-.48 0-.96.4-.96.96v2.88c0 .48.4.96.96.96h3.84v3.84c0 .48.4.96.96.96h2.88c.48 0 .96-.4.96-.96v-3.84h3.84c.48 0 .96-.4.96-.96v-2.88c0-.48-.4-.96-.96-.96zM54.4 21.6c-1.44 0-2.56 1.12-2.56 2.56s1.12 2.56 2.56 2.56 2.56-1.12 2.56-2.56c0-1.36-1.12-2.56-2.56-2.56zM59.52 26.8c-1.44 0-2.56 1.12-2.56 2.56s1.12 2.56 2.56 2.56 2.56-1.12 2.56-2.56-1.12-2.56-2.56-2.56zM49.2 26.8c-1.44 0-2.56 1.12-2.56 2.56s1.12 2.56 2.56 2.56 2.56-1.12 2.56-2.56c0-1.36-1.12-2.56-2.56-2.56zM54.32 32c-1.44 0-2.56 1.12-2.56 2.56s1.12 2.56 2.56 2.56 2.56-1.12 2.56-2.56S55.76 32 54.32 32z"/>
                </g>
            </g>
        </g>
    </g>
</svg>
