<svg xmlns="http://www.w3.org/2000/svg" width="74" height="73" viewBox="0 0 74 73">
    <g fill="none" fill-rule="evenodd">
        <g>
            <g transform="translate(-173 -815) translate(174 815)">
                <circle cx="36" cy="43" r="30" fill="#0D6EFD"/>
                <g fill="#37383C" fill-rule="nonzero" stroke="#37383C" stroke-width=".5">
                    <path d="M68.64 40.8c-2.08-1.04-4.48-.8-6.24.56l-11.28 6.48c-.64.32-1.28.56-2 .64.32-.72.56-1.52.56-2.4 0-3.12-2.48-5.6-5.6-5.6H29.36l-1.84-1.44c-3.6-2.72-7.92-4.16-12.24-4.16H4.8c-2.64 0-4.8 2.16-4.8 4.8v19.2c0 2.64 2.16 4.8 4.8 4.8h1.6c2.24 0 4.16-1.6 4.64-3.68l9.84 5.76c1.2.72 2.64 1.12 4.08 1.12h18.72c1.6 0 3.12-.48 4.48-1.36l21.44-14.4.08-.08c1.52-1.12 2.32-2.88 2.32-4.8 0-2.32-1.28-4.4-3.36-5.44zM8 58.8c0 .88-.72 1.6-1.6 1.6H4.8c-.88 0-1.6-.72-1.6-1.6V39.6c0-.88.72-1.6 1.6-1.6H8v20.8zm59.76-10.32L46.32 62.8c-.8.56-1.68.8-2.64.8H24.96c-.88 0-1.68-.24-2.4-.64L11.2 56.32V38h4.08c3.6 0 7.2 1.28 10.24 3.52l2.32 1.76c.32.24.64.32.96.32H44c1.36 0 2.4 1.04 2.4 2.4 0 1.28-1.04 2.4-2.4 2.4H24c-.48 0-.88.16-1.2.48-.24.32-.4.72-.4 1.12 0 .88.72 1.6 1.6 1.6h24.72c1.36 0 2.8-.4 4-1.04L64 44.08l.16-.16c.88-.64 2-.8 3.04-.32.96.48 1.6 1.44 1.6 2.56 0 .96-.4 1.76-1.04 2.32zM31.04 24.24l12 9.44c.32.24.64.32.96.32.32 0 .72-.08.96-.32l12-9.44c5.44-4.4 7.6-10.32 5.84-15.76-1.44-4.56-5.36-7.76-9.6-8h-.72c-3.2 0-6.24 1.28-8.56 3.52C41.68 1.76 38.64.48 35.36.48h-.72c-4.24.24-8.16 3.44-9.6 8-1.6 5.36.56 11.28 6 15.76zm-2.8-14.8c1.04-3.2 3.84-5.6 6.72-5.76h.48c2.88 0 5.52 1.44 7.2 3.76.32.4.8.64 1.28.64s.96-.24 1.28-.64c1.76-2.48 4.72-3.92 7.76-3.76 2.88.16 5.68 2.56 6.72 5.76 1.36 4.24-.4 8.72-4.8 12.32L44 30.4l-10.96-8.64c-4.4-3.68-6.16-8.16-4.8-12.32z"/>
                </g>
            </g>
        </g>
    </g>
</svg>
