<svg xmlns="http://www.w3.org/2000/svg" width="74" height="64" viewBox="0 0 74 64">
    <g fill="none" fill-rule="evenodd">
        <g>
            <g transform="translate(-758 -828) translate(759 828)">
                <circle cx="36" cy="30" r="30" fill="#0D6EFD"/>
                <path fill="#37383C" fill-rule="nonzero" stroke="#37383C" stroke-width=".85" d="M6.103 3C2.727 3 0 5.924 0 9.536v31.159c0 3.615 2.73 6.536 6.103 6.536h59.794c3.376 0 6.103-2.924 6.103-6.536V9.536C72 5.921 69.27 3 65.897 3H6.103zm.44 2.688h58.915C67.4 5.688 69 7.427 69 9.538v31.157c0 2.112-1.6 3.85-3.542 3.85H6.542C4.6 44.545 3 42.807 3 40.695V9.539c0-2.112 1.6-3.85 3.542-3.85zm24.754 7.696c-.647-.02-1.297.499-1.297 1.346V35.5c0 1.153 1.078 1.736 1.942 1.115l14.482-10.384c.766-.552.77-1.679 0-2.238L31.942 13.61c-.223-.16-.433-.223-.645-.23v.004zM32 17.245l11 7.874-11 7.874V17.245zm-7.268 32.682c-2.66 0-4.916 1.834-5.756 4.365l-.274.831H1.256C.55 55.123 0 55.71 0 56.463c0 .755.552 1.346 1.256 1.346h17.446l.274.832c.84 2.53 3.097 4.359 5.756 4.359 2.66 0 4.912-1.826 5.752-4.36l.273-.831h39.987c.704 0 1.256-.591 1.256-1.345s-.55-1.34-1.256-1.34H30.757l-.273-.832c-.84-2.533-3.093-4.365-5.752-4.365zm-.23 2.691c1.921 0 3.498 1.741 3.498 3.85 0 2.11-1.58 3.846-3.498 3.846-1.918 0-3.502-1.733-3.502-3.845s1.581-3.851 3.502-3.851z"/>
            </g>
        </g>
    </g>
</svg>
