<svg xmlns="http://www.w3.org/2000/svg" width="77" height="60" viewBox="0 0 77 60">
    <g fill="none" fill-rule="evenodd">
        <g>
            <g transform="translate(-1035 -828) translate(1035 828)">
                <circle cx="39" cy="30" r="30" fill="#0D6EFD"/>
                <g fill="#37383C" fill-rule="nonzero">
                    <path d="M74.8 5.92h-6.64V1.76c0-.88-.72-1.6-1.6-1.6-9.68 0-19.2 1.92-28.08 5.6C29.52 2 20.08.16 10.4.16c-.88 0-1.6.72-1.6 1.6v4.16H2c-.88 0-1.6.72-1.6 1.6v42c0 .88.72 1.6 1.6 1.6h72.8c.88 0 1.6-.72 1.6-1.6v-42c0-.88-.72-1.6-1.6-1.6zM3.6 47.84V9.12h5.12v34.64c0 .88.72 1.6 1.6 1.6 6.24 0 12.4.88 18.4 2.56H3.6v-.08zm33.2-.72c-8-3.12-16.32-4.8-24.88-5.04V3.36c8.56.16 16.96 2 24.88 5.28v38.48zM40 8.64c7.92-3.28 16.32-5.04 24.88-5.28v38.72C56.32 42.32 48 44 40 47.12V8.64zm33.2 39.2H48.08c6-1.6 12.16-2.56 18.4-2.56.88 0 1.6-.72 1.6-1.6V9.12h5.04v38.72h.08z"/>
                    <path d="M17.76 13.28c4.24.48 8.48 1.28 12.56 2.56.16.08.32.08.48.08.72 0 1.36-.48 1.52-1.12.24-.88-.24-1.76-1.04-2-4.32-1.28-8.72-2.16-13.12-2.64-.88-.08-1.68.56-1.76 1.44-.16.8.48 1.6 1.36 1.68zM17.76 20.88c4.24.48 8.48 1.28 12.56 2.56.16.08.32.08.48.08.72 0 1.36-.48 1.52-1.12.24-.88-.24-1.76-1.04-2-4.32-1.28-8.72-2.16-13.12-2.64-.88-.08-1.68.56-1.76 1.44-.16.8.48 1.6 1.36 1.68zM17.76 28.48c4.24.48 8.48 1.28 12.56 2.56.16.08.32.08.48.08.72 0 1.36-.48 1.52-1.12.24-.88-.24-1.76-1.04-2-4.32-1.28-8.72-2.16-13.12-2.64-.88-.08-1.68.56-1.76 1.44-.16.8.48 1.6 1.36 1.68zM17.76 36c4.24.48 8.48 1.28 12.56 2.56.16.08.32.08.48.08.72 0 1.36-.48 1.52-1.12.24-.88-.24-1.76-1.04-2-4.32-1.28-8.72-2.16-13.12-2.64-.88-.08-1.68.56-1.76 1.44-.16.8.48 1.6 1.36 1.68zM55.36 26.32L58 25.04c.4-.24.64-.56.72-1.04.08-.48-.16-.88-.48-1.2l-9.6-8.24c-.64-.56-1.36-.32-1.6-.24-.56.24-.8.8-.8 1.36l.96 12.72c0 .48.24.88.72 1.04.4.24.88.24 1.28 0l2.64-1.28 3.44 6.88c.48.96 1.76 1.44 2.72.88.96-.48 1.44-1.76.88-2.72l-3.52-6.88z"/>
                </g>
            </g>
        </g>
    </g>
</svg>
